<svg xmlns="http://www.w3.org/2000/svg" viewBox="0 0 96.35 101.62"><defs><style>.cls-1{fill:#ffd965;}.cls-2{fill:#fee699;}.cls-3{fill:#ffcd34;}</style></defs><g id="Layer_2" data-name="Layer 2"><g id="Logo_Monochrome" data-name="Logo, Monochrome"><path id="Bottom_Inlay" data-name="Bottom Inlay" class="cls-1" d="M78.9,28.31,44.66,61a7,7,0,0,0-1.92,2.86L36.37,80.52l39.7-45.87Z"/><path id="Top_Inlay" data-name="Top Inlay" class="cls-2" d="M93.88,0,53.44,30.44a8.59,8.59,0,0,0-2.88,3.89L43,55.29,92.25,3.57Z"/><path id="Hexagon" class="cls-3" d="M94.83,52.71,81,28.8l-1.83,6L84.74,50c1.34,3.71,2,7.83,0,11.34L69.1,88.21c-2,3.51-5.49,5.24-9.82,5.67l-26.8,3a9.46,9.46,0,0,1-9.82-5.66L11.85,66.5c-1.79-4.11-2-7.83,0-11.34L27.49,28.31c2-3.5,5.71-5,9.81-5.66L62,19l5.9-3.9H29.76a11.33,11.33,0,0,0-9.82,5.67L1.52,52.71a11.32,11.32,0,0,0,0,11.34L19.94,96a11.33,11.33,0,0,0,9.82,5.67H66.59A11.33,11.33,0,0,0,76.41,96l18.42-31.9A11.37,11.37,0,0,0,94.83,52.71Z"/></g></g></svg>